<svg width="1920" height="1280" viewBox="0 0 1920 1280" fill="none" xmlns="http://www.w3.org/2000/svg">
<rect width="1920" height="1280" fill="#00588E"/>
<circle cx="316.75" cy="304.875" r="45" fill="#004168"/>
<circle cx="1450.75" cy="462.875" r="45" fill="#004168"/>
<circle cx="87.75" cy="208.875" r="10" fill="#004168"/>
<circle cx="527.75" cy="1177.88" r="10" fill="#004168"/>
<circle cx="37.75" cy="361.875" r="22.5" fill="#004168"/>
<circle cx="226.75" cy="585.375" r="27.5" fill="#004168"/>
<circle cx="1484.38" cy="63.375" r="27.5" fill="#004168"/>
<circle cx="1780.25" cy="1160.38" r="27.5" fill="#004168"/>
<circle cx="60.75" cy="728.625" r="30" fill="#004168"/>
<circle cx="488.125" cy="699.25" r="47.625" fill="#004168"/>
<circle cx="1090.12" cy="370.25" r="47.625" fill="#004168"/>
<circle cx="1188.62" cy="1205" r="47.625" fill="#004168"/>
<circle cx="275.75" cy="910.375" r="13" fill="#004168"/>
<circle cx="459" cy="880.875" r="22.5" fill="#004168"/>
<circle cx="699.75" cy="905.875" r="27" fill="#004168"/>
<circle cx="653.75" cy="1039.38" r="20" fill="#004168"/>
<circle cx="836" cy="1066.38" r="16" fill="#004168"/>
<circle cx="1630.25" cy="406.375" r="11.5" fill="#004168"/>
<circle cx="1683.5" cy="225.375" r="30" fill="#004168"/>
<circle cx="1212.5" cy="200.625" r="16.25" fill="#004168"/>
<circle cx="863.875" cy="223" r="24.875" fill="#004168"/>
<circle cx="769.688" cy="282.688" r="5.125" fill="#004168"/>
<circle cx="727.25" cy="393.375" r="18.25" fill="#004168"/>
<circle cx="488" cy="465.875" r="17" fill="#004168"/>
<circle cx="672.75" cy="628.375" r="9" fill="#004168"/>
<circle cx="517.75" cy="297.375" r="12.75" fill="#004168"/>
<circle cx="1055.25" cy="903.375" r="12.75" fill="#004168"/>
<circle cx="424.75" cy="142.625" r="20" fill="#004168"/>
<circle cx="835.25" cy="673.375" r="82.5" fill="#004168"/>
<circle cx="1518" cy="831.125" r="51.875" fill="#004168"/>
<circle cx="247.25" cy="1099.38" r="58" fill="#004168"/>
<circle cx="1218" cy="615.625" r="42.75" fill="#004168"/>
<circle cx="1357" cy="673.375" r="21.75" fill="#004168"/>
<circle cx="1266" cy="761.875" r="29.75" fill="#004168"/>
<circle cx="1869" cy="543.125" r="35.75" fill="#004168"/>
<circle cx="1723" cy="860.875" r="29.75" fill="#004168"/>
<circle cx="1484.38" cy="1099.25" r="33.625" fill="#004168"/>
</svg>
